<svg width="36" height="36" xmlns="http://www.w3.org/2000/svg" xmlns:xlink="http://www.w3.org/1999/xlink" overflow="hidden"><defs><clipPath id="clip0"><rect x="1230" y="8" width="36" height="36"/></clipPath><clipPath id="clip1"><rect x="1231" y="8" width="35" height="36"/></clipPath><clipPath id="clip2"><rect x="1231" y="8" width="35" height="36"/></clipPath><clipPath id="clip3"><rect x="1231" y="8" width="35" height="36"/></clipPath></defs><g clip-path="url(#clip0)" transform="translate(-1230 -8)"><g clip-path="url(#clip1)"><g clip-path="url(#clip2)"><g clip-path="url(#clip3)"><path d="M31.1719 27.5625 26.6146 23.0052C25.9948 22.3854 25.1562 22.1667 24.3542 22.3125L22.75 20.7083C24.1719 18.8854 25.0104 16.5521 25.0104 14.0729 25.0104 8.05729 20.0885 3.13542 14.0729 3.13542 8.05729 3.13542 3.13542 8.05729 3.13542 14.0729 3.13542 20.0885 8.05729 25.0104 14.0729 25.0104 16.5521 25.0104 18.849 24.1719 20.7083 22.75L22.3125 24.3542C22.1667 25.1562 22.3854 25.9948 23.0052 26.6146L27.5625 31.1719C28.0729 31.6823 28.7292 31.9375 29.3854 31.9375 30.0417 31.9375 30.6979 31.6823 31.2083 31.1719 32.1562 30.151 32.1562 28.5469 31.1719 27.5625ZM14.0365 22.7865C9.22396 22.7865 5.28646 18.849 5.28646 14.0365 5.28646 9.22396 9.22396 5.28646 14.0365 5.28646 18.849 5.28646 22.7865 9.22396 22.7865 14.0365 22.7865 18.849 18.849 22.7865 14.0365 22.7865Z" fill="#7F7F7F" fill-rule="nonzero" fill-opacity="1" transform="matrix(1 0 0 1.02857 1231 8)"/></g></g></g></g></svg>